<?xml version="1.0" encoding="UTF-8"?>
<!DOCTYPE svg PUBLIC "-//W3C//DTD SVG 1.1//EN" "http://www.w3.org/Graphics/SVG/1.1/DTD/svg11.dtd">
<!-- Creator: CorelDRAW X7 -->
<svg xmlns="http://www.w3.org/2000/svg" xml:space="preserve" width="30.7644mm" height="30.7644mm" version="1.1" style="shape-rendering:geometricPrecision; text-rendering:geometricPrecision; image-rendering:optimizeQuality; fill-rule:evenodd; clip-rule:evenodd"
viewBox="0 0 91 91"
 xmlns:xlink="http://www.w3.org/1999/xlink">
 <defs>
  <style type="text/css">
   <![CDATA[
    .str0 {stroke:black;stroke-width:5.91784}
    .fil0 {fill:none}
   ]]>
  </style>
 </defs>
 <g id="Слой_x0020_1">
  <metadata id="CorelCorpID_0Corel-Layer"/>
  <g id="_2259490817072">
   <path class="fil0 str0" d="M26 68c-5,0 -9,4 -9,9 0,4 4,8 9,8 5,0 9,-4 9,-8 0,-5 -4,-9 -9,-9z"/>
   <path class="fil0 str0" d="M53 68c-5,0 -9,4 -9,9 0,4 4,8 9,8 4,0 8,-4 8,-8 0,-5 -4,-9 -8,-9z"/>
   <polygon class="fil0 str0" points="5,14 13,58 66,58 74,14 "/>
   <polyline class="fil0 str0" points="74,14 76,6 90,6 "/>
  </g>
  <polygon class="fil0" points="0,0 91,0 91,91 0,91 "/>
 </g>
</svg>
