<?xml version="1.0" encoding="UTF-8"?>
<!DOCTYPE svg PUBLIC "-//W3C//DTD SVG 1.1//EN" "http://www.w3.org/Graphics/SVG/1.1/DTD/svg11.dtd">
<!-- Creator: CorelDRAW X7 -->
<svg xmlns="http://www.w3.org/2000/svg" xml:space="preserve" width="100px" height="100px" version="1.1" style="shape-rendering:geometricPrecision; text-rendering:geometricPrecision; image-rendering:optimizeQuality; fill-rule:evenodd; clip-rule:evenodd"
viewBox="0 0 107 107"
 xmlns:xlink="http://www.w3.org/1999/xlink">
 <defs>
  <style type="text/css">
   <![CDATA[
    .fil1 {fill:#FEFEFE}
    .fil0 {fill:#25A3E1}
   ]]>
  </style>
 </defs>
 <g id="Слой_x0020_1">
  <metadata id="CorelCorpID_0Corel-Layer"/>
  <g id="_1952285828096">
   <path class="fil0" d="M107 54c0,29 -24,53 -53,53 -30,0 -54,-24 -54,-53 0,-30 24,-54 54,-54 29,0 53,24 53,54z"/>
   <path class="fil1" d="M25 53c15,-7 26,-11 31,-14 15,-6 18,-7 20,-7 1,0 2,0 2,1 1,0 1,1 1,1 0,1 0,1 0,2 -1,9 -4,29 -6,39 -1,4 -2,5 -4,5 -3,1 -5,-2 -8,-4 -5,-3 -8,-5 -12,-8 -5,-3 -2,-5 1,-8 1,-1 15,-14 15,-15 0,0 0,0 0,-1 -1,0 -1,0 -2,0 0,0 -8,5 -22,15 -2,2 -4,2 -6,2 -2,0 -6,-1 -8,-2 -4,-1 -6,-1 -6,-3 0,-1 1,-2 4,-3z"/>
  </g>
 </g>
</svg>
