<?xml version="1.0" encoding="UTF-8"?>
<!DOCTYPE svg PUBLIC "-//W3C//DTD SVG 1.1//EN" "http://www.w3.org/Graphics/SVG/1.1/DTD/svg11.dtd">
<!-- Creator: CorelDRAW X7 -->
<svg xmlns="http://www.w3.org/2000/svg" xml:space="preserve" width="100px" height="100px" version="1.1" style="shape-rendering:geometricPrecision; text-rendering:geometricPrecision; image-rendering:optimizeQuality; fill-rule:evenodd; clip-rule:evenodd"
viewBox="0 0 104 104"
 xmlns:xlink="http://www.w3.org/1999/xlink">
 <defs>
  <style type="text/css">
   <![CDATA[
    .fil1 {fill:#FEFEFE}
    .fil0 {fill:#25D366}
   ]]>
  </style>
 </defs>
 <g id="Слой_x0020_1">
  <metadata id="CorelCorpID_0Corel-Layer"/>
  <g id="_1952286352496">
   <path class="fil0" d="M104 52c0,29 -23,52 -52,52 -29,0 -52,-23 -52,-52 0,-29 23,-52 52,-52 29,0 52,23 52,52z"/>
   <path class="fil1" d="M41 70l1 0c3,2 7,3 11,3l0 0c12,0 21,-9 21,-21 0,-6 -2,-11 -6,-15 -4,-4 -10,-7 -15,-7 -12,0 -22,10 -22,22 0,4 1,8 4,11l0 1 -2 8 8 -2zm-14 8l3 -13c-2,-4 -3,-9 -3,-13 0,-14 11,-26 26,-26 7,0 13,3 18,8 5,5 8,11 8,18 0,14 -12,26 -26,26l0 0c-5,0 -9,-1 -13,-3l-13 3z"/>
   <path class="fil1" d="M66 58c0,0 -1,0 -2,-1 0,0 -3,-2 -4,-2 -1,0 -1,0 -1,1 -1,0 -2,2 -2,2 -1,0 -1,1 -2,0 0,0 -3,-1 -5,-3 -2,-2 -3,-4 -4,-4 0,-1 0,-1 1,-2 0,0 0,-1 1,-1 0,0 0,-1 0,-1 1,0 0,-1 0,-1 0,0 -1,-4 -2,-5 0,-1 -1,-1 -1,-1 -1,0 -1,0 -1,0 -1,0 -2,0 -2,1 -1,0 -2,2 -2,5 0,3 2,6 2,7 1,0 5,7 11,10 2,0 3,1 4,1 1,0 3,0 4,0 1,0 4,-1 4,-3 1,-1 1,-3 1,-3z"/>
  </g>
 </g>
</svg>
