<?xml version="1.0" encoding="UTF-8"?>
<!DOCTYPE svg PUBLIC "-//W3C//DTD SVG 1.1//EN" "http://www.w3.org/Graphics/SVG/1.1/DTD/svg11.dtd">
<!-- Creator: CorelDRAW X7 -->
<svg xmlns="http://www.w3.org/2000/svg" xml:space="preserve" width="30.7643mm" height="30.7644mm" version="1.1" style="shape-rendering:geometricPrecision; text-rendering:geometricPrecision; image-rendering:optimizeQuality; fill-rule:evenodd; clip-rule:evenodd"
viewBox="0 0 139 139"
 xmlns:xlink="http://www.w3.org/1999/xlink">
 <defs>
  <style type="text/css">
   <![CDATA[
    .str0 {stroke:black;stroke-width:9.04822}
    .fil0 {fill:none}
   ]]>
  </style>
 </defs>
 <g id="Слой_x0020_1">
  <metadata id="CorelCorpID_0Corel-Layer"/>
  <path class="fil0 str0" d="M101 85c-10,-8 -13,-4 -18,1 -3,4 -12,-3 -19,-11 -8,-7 -15,-15 -11,-19 4,-5 9,-8 0,-18 -9,-11 -14,-3 -19,2 -5,6 0,26 20,45 20,20 40,25 46,20 4,-5 12,-11 3,-19 -1,0 -1,-1 -2,-1z"/>
  <path class="fil0 str0" d="M7 132l9 -32c-6,-9 -8,-20 -8,-31 0,-34 28,-62 62,-62 16,0 32,6 44,18 12,12 18,27 18,44 0,34 -28,62 -62,62l0 0c-11,0 -21,-2 -30,-7l-33 8z"/>
  <polygon class="fil0" points="0,0 139,0 139,139 0,139 "/>
 </g>
</svg>
